<svg width="340" height="90" viewBox="0 0 340 90" fill="none" xmlns="http://www.w3.org/2000/svg">
<path d="M252.707 89.9996H217.652L202.46 60.3005V89.9996H169.427V0.00593451H202.46V29.775L217.652 0.000232697L252.707 0.00605417L230.305 45.0361L252.707 89.9996Z" fill="#FF0060"/>
<path d="M318.028 0.000289917H278.695L256.72 89.9997H287.738L298.338 45.0963L308.989 89.9997H340L318.028 0.000289917Z" fill="#FF0060"/>
<path d="M3 0.0608149L40.7181 5.58671e-05C62.7326 -0.0351239 78.4122 16.5502 78.4441 33.2831C78.4748 49.9643 62.8597 66.6696 40.8452 66.7038L3.09573 66.7625L3.05911 37.0425L36.7227 36.99C38.7498 36.9869 40.7854 35.2341 40.782 33.4066C40.7784 31.5863 38.7359 29.7163 36.7088 29.7195L3.03858 29.772L3.00198 0.0587043L3 0.0608149Z" fill="#FF0060"/>
<path d="M86.2798 89.9999H51.2362L36.0496 67.5187V89.9999H3.02716V21.8778H36.0496V44.412L51.2362 21.8734L67.6246 24.9515L63.8855 55.9641L86.2798 89.9999Z" fill="#FF0060"/>
<path d="M165.379 57.5904L123.726 57.5922C99.4143 57.5922 82.1337 43.2521 82.1337 28.805C82.1337 14.4024 99.4143 0 123.726 0H165.414L165.393 25.6603H128.217C125.978 25.6603 123.727 27.1709 123.727 28.7487C123.727 30.3205 125.978 31.9377 128.217 31.9377H165.4L165.379 57.5904Z" fill="#FF0060"/>
<path d="M165.379 89.9982L123.726 90C99.4143 90 82.1337 75.66 82.1337 61.2128C82.1337 46.8102 99.4143 32.4078 123.726 32.4078H165.414L165.393 58.0681H128.217C125.978 58.0681 123.727 59.5787 123.727 61.1566C123.727 62.7283 125.978 64.3455 128.217 64.3455H165.4L165.379 89.9982Z" fill="#FF0060"/>
<path d="M249.707 89.9996H214.652L199.46 60.3005V89.9996H166.427V0.00593451H199.46V29.775L214.652 0.000232697L249.707 0.00605417L227.305 45.0361L249.707 89.9996Z" fill="#FF8080"/>
<path d="M315.028 0.000289917H275.695L253.72 89.9997H284.738L295.338 45.0963L305.989 89.9997H337L315.028 0.000289917Z" fill="#FF8080"/>
<path d="M0 0.0608149L37.7181 5.58671e-05C59.7326 -0.0351239 75.4122 16.5502 75.4441 33.2831C75.4748 49.9643 59.8597 66.6696 37.8452 66.7038L0.0957342 66.7625L0.0591105 37.0425L33.7227 36.99C35.7498 36.9869 37.7854 35.2341 37.782 33.4066C37.7784 31.5863 35.7359 29.7163 33.7088 29.7195L0.0385768 29.772L0.00198413 0.0587043L0 0.0608149Z" fill="#FF8080"/>
<path d="M83.2798 89.9999H48.2362L33.0496 67.5187V89.9999H0.0271606V21.8778H33.0496V44.412L48.2362 21.8734L64.6246 24.9515L60.8855 55.9641L83.2798 89.9999Z" fill="#FF8080"/>
<path d="M162.379 57.5904L120.726 57.5922C96.4143 57.5922 79.1337 43.2521 79.1337 28.805C79.1337 14.4024 96.4143 0 120.726 0H162.414L162.393 25.6603H125.217C122.978 25.6603 120.727 27.1709 120.727 28.7487C120.727 30.3205 122.978 31.9377 125.217 31.9377H162.4L162.379 57.5904Z" fill="#FF8080"/>
<path d="M162.379 89.9982L120.726 90C96.4143 90 79.1337 75.66 79.1337 61.2128C79.1337 46.8102 96.4143 32.4078 120.726 32.4078H162.414L162.393 58.0681H125.217C122.978 58.0681 120.727 59.5787 120.727 61.1566C120.727 62.7283 122.978 64.3455 125.217 64.3455H162.4L162.379 89.9982Z" fill="#FF8080"/>
</svg>
